<svg width="16" height="17" viewBox="0 0 16 17" fill="none" xmlns="http://www.w3.org/2000/svg">
<path fill-rule="evenodd" clip-rule="evenodd" d="M10.6879 15.5493H10.6859C10.6019 15.5493 10.5283 15.5826 10.4669 15.6305C10.4551 15.6399 10.4403 15.6453 10.4297 15.6559C10.3708 15.7151 10.3368 15.7961 10.3294 15.8844C10.3287 15.8943 10.3238 15.903 10.3238 15.9131C10.3238 15.958 10.3344 15.9999 10.3494 16.0394C10.3543 16.0523 10.3605 16.0634 10.3666 16.0755C10.3799 16.1014 10.3959 16.1253 10.4152 16.1473C10.4245 16.1582 10.4329 16.1693 10.4435 16.1789C10.4726 16.2053 10.5046 16.2285 10.5411 16.2445H10.5413C10.5864 16.2645 10.6357 16.2766 10.6879 16.2766C10.8498 16.2766 10.9821 16.169 11.0292 16.0222C11.0417 15.9886 11.0504 15.9535 11.0506 15.915C11.0506 15.9143 11.0511 15.9138 11.0511 15.9131C11.0511 15.7119 10.8885 15.5493 10.6879 15.5493ZM15.7686 11.2126C15.7334 11.1978 15.6942 11.1921 15.6541 11.1894C15.6469 11.1892 15.6412 11.1852 15.6339 11.1852H15.6319C15.4313 11.1852 15.2697 11.3481 15.2697 11.5491C15.2697 11.598 15.28 11.6441 15.2975 11.6861C15.3099 11.7162 15.3301 11.7403 15.349 11.7658C15.3569 11.7754 15.3613 11.7872 15.3697 11.7961C15.4301 11.8603 15.5134 11.8997 15.6065 11.9071C15.607 11.9071 15.6075 11.9074 15.608 11.9076V11.9074C15.6169 11.9081 15.6247 11.9126 15.6339 11.9126C15.8344 11.9126 15.997 11.7497 15.997 11.5491C15.997 11.3962 15.9022 11.2664 15.7686 11.2126ZM3.26902 4.78459H3.26705C3.06648 4.78459 2.90485 4.94743 2.90485 5.14826C2.90485 5.34885 3.06846 5.51194 3.26902 5.51194C3.46933 5.51194 3.6322 5.34885 3.6322 5.14826C3.6322 4.94743 3.46933 4.78459 3.26902 4.78459ZM3.26902 13.3672H3.26705C3.06648 13.3672 2.90485 13.5299 2.90485 13.731C2.90485 13.9317 3.06846 14.0946 3.26902 14.0946C3.46933 14.0946 3.6322 13.9317 3.6322 13.731C3.6322 13.5299 3.46933 13.3672 3.26902 13.3672ZM5.74198 7.69397C5.94255 7.69397 6.10516 7.53088 6.10516 7.33029C6.10516 7.12921 5.94255 6.96662 5.74198 6.96662H5.74026C5.53945 6.96662 5.37782 7.12921 5.37782 7.33029C5.37782 7.53088 5.54142 7.69397 5.74198 7.69397ZM3.26902 2.60256H3.26705C3.06648 2.60256 2.90485 2.7654 2.90485 2.96623C2.90485 3.16707 3.06846 3.32991 3.26902 3.32991C3.46933 3.32991 3.6322 3.16707 3.6322 2.96623C3.6322 2.7654 3.46933 2.60256 3.26902 2.60256ZM3.26902 9.00319H3.26705C3.06648 9.00319 2.90485 9.16602 2.90485 9.36686C2.90485 9.56769 3.06846 9.73053 3.26902 9.73053C3.46933 9.73053 3.6322 9.56769 3.6322 9.36686C3.6322 9.16602 3.46933 9.00319 3.26902 9.00319ZM3.26902 11.1852H3.26705C3.06648 11.1852 2.90485 11.3481 2.90485 11.5491C2.90485 11.7497 3.06846 11.9126 3.26902 11.9126C3.46933 11.9126 3.6322 11.7497 3.6322 11.5491C3.6322 11.3481 3.46933 11.1852 3.26902 11.1852ZM5.74198 3.32991C5.94255 3.32991 6.10516 3.16707 6.10516 2.96623C6.10516 2.7654 5.94255 2.60256 5.74198 2.60256H5.74026C5.53945 2.60256 5.37782 2.7654 5.37782 2.96623C5.37782 3.16707 5.54142 3.32991 5.74198 3.32991ZM5.74198 5.51194C5.94255 5.51194 6.10516 5.34885 6.10516 5.14826C6.10516 4.94743 5.94255 4.78459 5.74198 4.78459H5.74026C5.53945 4.78459 5.37782 4.94743 5.37782 5.14826C5.37782 5.34885 5.54142 5.51194 5.74198 5.51194ZM5.74198 1.14788C5.94255 1.14788 6.10516 0.985038 6.10516 0.784204C6.10516 0.58337 5.94255 0.420532 5.74198 0.420532H5.74026C5.53945 0.420532 5.37782 0.58337 5.37782 0.784204C5.37782 0.985038 5.54142 1.14788 5.74198 1.14788ZM3.26902 6.96662H3.26705C3.06648 6.96662 2.90485 7.12921 2.90485 7.33029C2.90485 7.53088 3.06846 7.69397 3.26902 7.69397C3.46933 7.69397 3.6322 7.53088 3.6322 7.33029C3.6322 7.12921 3.46933 6.96662 3.26902 6.96662ZM0.796296 9.00319H0.794078C0.593517 9.00319 0.431885 9.16602 0.431885 9.36686C0.431885 9.56769 0.595734 9.73053 0.796296 9.73053C0.996857 9.73053 1.15923 9.56769 1.15923 9.36686C1.15923 9.16602 0.996857 9.00319 0.796296 9.00319ZM0.796296 6.96662H0.794078C0.593517 6.96662 0.431885 7.12921 0.431885 7.33029C0.431885 7.53088 0.595734 7.69397 0.796296 7.69397C0.996857 7.69397 1.15923 7.53088 1.15923 7.33029C1.15923 7.12921 0.996857 6.96662 0.796296 6.96662ZM0.796173 11.1852H0.793954C0.748357 11.1852 0.705717 11.1956 0.666035 11.2114C0.645824 11.219 0.629064 11.2314 0.610825 11.2425C0.595543 11.2521 0.580015 11.2607 0.566213 11.2728C0.542305 11.2923 0.523573 11.315 0.505334 11.3402C0.501883 11.3453 0.498433 11.35 0.494982 11.3557C0.475264 11.3863 0.460722 11.4184 0.450863 11.4544L0.450617 11.4546V11.4549C0.442237 11.4855 0.431885 11.5156 0.431885 11.5491C0.431885 11.6922 0.516918 11.8134 0.637444 11.8726V11.8728H0.63769C0.685753 11.8963 0.737512 11.9118 0.794201 11.9121C0.79494 11.9121 0.795433 11.9126 0.796173 11.9126C0.996802 11.9126 1.15923 11.7497 1.15923 11.5491C1.15923 11.4988 1.14912 11.4509 1.13064 11.4075C1.07567 11.277 0.946522 11.1852 0.796173 11.1852ZM13.1609 6.96662H13.1589C12.9584 6.96662 12.7967 7.12921 12.7967 7.33029C12.7967 7.53088 12.9603 7.69397 13.1609 7.69397C13.3614 7.69397 13.5241 7.53088 13.5241 7.33029C13.5241 7.12921 13.3614 6.96662 13.1609 6.96662ZM0.796173 4.78459H0.793954C0.752547 4.78459 0.714343 4.79372 0.678358 4.80803C0.645577 4.81938 0.616986 4.83641 0.589381 4.85614C0.589135 4.85614 0.589135 4.85614 0.588888 4.85639C0.495968 4.92227 0.431885 5.0254 0.431885 5.14826C0.431885 5.16381 0.438786 5.17688 0.440758 5.19218H0.440511C0.440511 5.19268 0.440758 5.19292 0.441004 5.19317C0.452342 5.28174 0.492024 5.35995 0.555368 5.4167C0.563995 5.4246 0.574839 5.42904 0.583959 5.43595C0.608853 5.4542 0.632761 5.4732 0.662091 5.4848C0.703252 5.50182 0.74811 5.51194 0.796173 5.51194C0.946522 5.51194 1.07567 5.4204 1.13064 5.28964C1.14912 5.24621 1.15923 5.19835 1.15923 5.14826C1.15923 5.09818 1.14912 5.05031 1.13064 5.00689C1.07567 4.87613 0.946522 4.78459 0.796173 4.78459ZM13.1609 9.00319H13.1589C12.9584 9.00319 12.7967 9.16602 12.7967 9.36686C12.7967 9.56769 12.9603 9.73053 13.1609 9.73053C13.3614 9.73053 13.5241 9.56769 13.5241 9.36686C13.5241 9.16602 13.3614 9.00319 13.1609 9.00319ZM13.1609 4.78459H13.1589C12.9584 4.78459 12.7967 4.94743 12.7967 5.14826C12.7967 5.34885 12.9603 5.51194 13.1609 5.51194C13.3614 5.51194 13.5241 5.34885 13.5241 5.14826C13.5241 4.94743 13.3614 4.78459 13.1609 4.78459ZM13.1609 13.3672H13.1589C12.9584 13.3672 12.7967 13.5299 12.7967 13.731C12.7967 13.9317 12.9603 14.0946 13.1609 14.0946C13.3614 14.0946 13.5241 13.9317 13.5241 13.731C13.5241 13.5299 13.3614 13.3672 13.1609 13.3672ZM13.1609 11.1852H13.1589C12.9584 11.1852 12.7967 11.3481 12.7967 11.5491C12.7967 11.7497 12.9603 11.9126 13.1609 11.9126C13.3614 11.9126 13.5241 11.7497 13.5241 11.5491C13.5241 11.3481 13.3614 11.1852 13.1609 11.1852ZM10.688 1.14788C10.8885 1.14788 11.0511 0.985038 11.0511 0.784204C11.0511 0.784204 11.0509 0.783957 11.0509 0.78371C11.0509 0.724743 11.0336 0.671204 11.0085 0.621859C11.006 0.617172 11.0028 0.613717 11.0001 0.609276C10.9738 0.562645 10.9378 0.52391 10.8942 0.492822H10.894C10.8346 0.450633 10.7661 0.420532 10.688 0.420532H10.6861C10.4856 0.420532 10.3238 0.58337 10.3238 0.784204C10.3238 0.985038 10.4875 1.14788 10.688 1.14788ZM13.1609 2.60256H13.1589C12.9584 2.60256 12.7967 2.7654 12.7967 2.96623C12.7967 3.16707 12.9603 3.32991 13.1609 3.32991C13.3614 3.32991 13.5241 3.16707 13.5241 2.96623C13.5241 2.7654 13.3614 2.60256 13.1609 2.60256ZM10.6879 4.78459H10.6859C10.4854 4.78459 10.3238 4.94743 10.3238 5.14826C10.3238 5.34885 10.4874 5.51194 10.6879 5.51194C10.8885 5.51194 11.0511 5.34885 11.0511 5.14826C11.0511 4.94743 10.8885 4.78459 10.6879 4.78459ZM10.6879 11.1852H10.6859C10.4854 11.1852 10.3238 11.3481 10.3238 11.5491C10.3238 11.7497 10.4874 11.9126 10.6879 11.9126C10.8885 11.9126 11.0511 11.7497 11.0511 11.5491C11.0511 11.3481 10.8885 11.1852 10.6879 11.1852ZM10.6879 9.00319H10.6859C10.4854 9.00319 10.3238 9.16602 10.3238 9.36686C10.3238 9.56769 10.4874 9.73053 10.6879 9.73053C10.8885 9.73053 11.0511 9.56769 11.0511 9.36686C11.0511 9.16602 10.8885 9.00319 10.6879 9.00319ZM10.6879 6.96662H10.6859C10.4854 6.96662 10.3238 7.12921 10.3238 7.33029C10.3238 7.53088 10.4874 7.69397 10.6879 7.69397C10.8885 7.69397 11.0511 7.53088 11.0511 7.33029C11.0511 7.12921 10.8885 6.96662 10.6879 6.96662ZM10.6879 13.3672H10.6859C10.4854 13.3672 10.3238 13.5299 10.3238 13.731C10.3238 13.9317 10.4874 14.0946 10.6879 14.0946C10.8885 14.0946 11.0511 13.9317 11.0511 13.731C11.0511 13.5299 10.8885 13.3672 10.6879 13.3672ZM5.74198 9.73053C5.94255 9.73053 6.10516 9.56769 6.10516 9.36686C6.10516 9.16602 5.94255 9.00319 5.74198 9.00319H5.74026C5.53945 9.00319 5.37782 9.16602 5.37782 9.36686C5.37782 9.56769 5.54142 9.73053 5.74198 9.73053ZM5.99872 15.6559C5.98788 15.645 5.9731 15.6396 5.96103 15.6305C5.89967 15.5826 5.826 15.5493 5.74198 15.5493H5.74001C5.53945 15.5493 5.37782 15.7119 5.37782 15.9131C5.37782 16.0118 5.41798 16.1006 5.48204 16.1663C5.48229 16.1665 5.48229 16.1668 5.48254 16.1668C5.54857 16.2344 5.64023 16.2766 5.74198 16.2766C5.7612 16.2766 5.77771 16.2687 5.79619 16.2658C5.79644 16.2658 5.79668 16.2655 5.79693 16.2655C5.88267 16.2522 5.95758 16.2127 6.01203 16.1503C6.0209 16.1406 6.02607 16.1288 6.03371 16.1182C6.05022 16.0947 6.06771 16.0725 6.07855 16.0456C6.09482 16.0054 6.10442 15.9614 6.10467 15.9146C6.10467 15.9141 6.10516 15.9138 6.10516 15.9131C6.10516 15.8208 6.06796 15.7388 6.01154 15.6747C6.00636 15.6687 6.00414 15.6611 5.99872 15.6559ZM15.4923 5.48333C15.5359 5.50182 15.5837 5.51194 15.634 5.51194C15.687 5.51194 15.7365 5.49936 15.7819 5.47889C15.7833 5.47815 15.7843 5.47691 15.7858 5.47617C15.8302 5.45546 15.8684 5.42635 15.9007 5.39034C15.9593 5.32597 15.997 5.24211 15.997 5.14839C15.997 4.94762 15.8344 4.78459 15.634 4.78459H15.632C15.4314 4.78459 15.2697 4.94762 15.2697 5.14839C15.2697 5.29884 15.3616 5.42808 15.4923 5.48333ZM15.634 7.69397C15.8344 7.69397 15.997 7.53088 15.997 7.33029C15.997 7.12921 15.8344 6.96662 15.634 6.96662H15.632C15.4314 6.96662 15.2697 7.12921 15.2697 7.33029C15.2697 7.53088 15.4331 7.69397 15.634 7.69397ZM15.634 9.73053C15.8344 9.73053 15.997 9.56769 15.997 9.36686C15.997 9.16602 15.8344 9.00319 15.634 9.00319H15.632C15.4314 9.00319 15.2697 9.16602 15.2697 9.36686C15.2697 9.56769 15.4331 9.73053 15.634 9.73053ZM8.21495 4.78459H8.21323C8.01267 4.78459 7.85079 4.94743 7.85079 5.14826C7.85079 5.34885 8.01439 5.51194 8.21495 5.51194C8.41551 5.51194 8.57813 5.34885 8.57813 5.14826C8.57813 4.94743 8.41551 4.78459 8.21495 4.78459ZM8.21495 2.60256H8.21323C8.01267 2.60256 7.85079 2.7654 7.85079 2.96623C7.85079 3.16707 8.01439 3.32991 8.21495 3.32991C8.41551 3.32991 8.57813 3.16707 8.57813 2.96623C8.57813 2.7654 8.41551 2.60256 8.21495 2.60256ZM8.21495 0.420532H8.21323C8.01267 0.420532 7.85079 0.58337 7.85079 0.784204C7.85079 0.985038 8.01439 1.14788 8.21495 1.14788C8.41551 1.14788 8.57813 0.985038 8.57813 0.784204C8.57813 0.58337 8.41551 0.420532 8.21495 0.420532ZM5.74198 14.0946C5.94255 14.0946 6.10516 13.9317 6.10516 13.731C6.10516 13.5299 5.94255 13.3672 5.74198 13.3672H5.74026C5.53945 13.3672 5.37782 13.5299 5.37782 13.731C5.37782 13.9317 5.54142 14.0946 5.74198 14.0946ZM5.74198 11.9126C5.94255 11.9126 6.10516 11.7497 6.10516 11.5491C6.10516 11.3481 5.94255 11.1852 5.74198 11.1852H5.74026C5.53945 11.1852 5.37782 11.3481 5.37782 11.5491C5.37782 11.7497 5.54142 11.9126 5.74198 11.9126ZM8.21495 6.96662H8.21323C8.01267 6.96662 7.85079 7.12921 7.85079 7.33029C7.85079 7.53088 8.01439 7.69397 8.21495 7.69397C8.41551 7.69397 8.57813 7.53088 8.57813 7.33029C8.57813 7.12921 8.41551 6.96662 8.21495 6.96662ZM10.6879 2.60256H10.6859C10.4854 2.60256 10.3238 2.7654 10.3238 2.96623C10.3238 3.16707 10.4874 3.32991 10.6879 3.32991C10.8885 3.32991 11.0511 3.16707 11.0511 2.96623C11.0511 2.7654 10.8885 2.60256 10.6879 2.60256ZM8.21495 13.3672H8.21323C8.01267 13.3672 7.85079 13.5299 7.85079 13.731C7.85079 13.9317 8.01439 14.0946 8.21495 14.0946C8.41551 14.0946 8.57813 13.9317 8.57813 13.731C8.57813 13.5299 8.41551 13.3672 8.21495 13.3672ZM8.21495 15.5493H8.21323C8.01267 15.5493 7.85079 15.7122 7.85079 15.9131C7.85079 16.114 8.01439 16.2766 8.21495 16.2766C8.41551 16.2766 8.57813 16.114 8.57813 15.9131C8.57813 15.7122 8.41551 15.5493 8.21495 15.5493ZM8.21495 11.1852H8.21323C8.01267 11.1852 7.85079 11.3481 7.85079 11.5491C7.85079 11.7497 8.01439 11.9126 8.21495 11.9126C8.41551 11.9126 8.57813 11.7497 8.57813 11.5491C8.57813 11.3481 8.41551 11.1852 8.21495 11.1852ZM8.21495 9.00319H8.21323C8.01267 9.00319 7.85079 9.16602 7.85079 9.36686C7.85079 9.56769 8.01439 9.73053 8.21495 9.73053C8.41551 9.73053 8.57813 9.56769 8.57813 9.36686C8.57813 9.16602 8.41551 9.00319 8.21495 9.00319Z" fill="#130D3A"/>
</svg>
