<svg width="18" height="21" viewBox="0 0 18 21" fill="none" xmlns="http://www.w3.org/2000/svg">
<rect x="0.547974" y="2.46039" width="12.964" height="9.38488" rx="0.711342" fill="#263238"/>
<rect x="6.84167" y="2.0354" width="0.377163" height="18.5289" rx="0.170198" fill="#263238"/>
<path d="M6.62605 20.1892H7.43329C7.60787 20.1892 7.7494 20.33 7.7494 20.5036V20.542C7.7494 20.5479 7.74704 20.5536 7.74284 20.5578C7.73864 20.562 7.73295 20.5643 7.72701 20.5643H6.33232C6.31996 20.5643 6.30994 20.5543 6.30994 20.542V20.5036C6.30994 20.33 6.45146 20.1892 6.62605 20.1892V20.1892Z" fill="#263238"/>
<rect x="10.6249" y="2.2243" width="1.08536" height="0.0674637" fill="#FF7171"/>
<rect x="9.64539" y="2.2243" width="0.331714" height="0.0674637" fill="#FF7171"/>
<rect x="0.596191" y="2.46039" width="12.964" height="9.38488" rx="0.711342" fill="#FF7171"/>
<path opacity="0.7" d="M12.6071 2.79773C12.9461 2.79773 13.2209 3.07257 13.2209 3.41161V10.8941C13.2209 11.2331 12.9461 11.508 12.6071 11.508H1.5492C1.21017 11.508 0.935327 11.2331 0.935327 10.8941V3.41161C0.935327 3.07257 1.21017 2.79773 1.5492 2.79773L12.6071 2.79773Z" fill="white"/>
<path opacity="0.2" d="M4.50954 7.04054C3.71855 6.9669 2.9243 6.93357 2.12988 6.94069C2.13734 5.86802 2.23367 4.70832 2.31846 3.5675L4.65064 3.7166C4.56042 5.04766 4.47087 6.38277 4.50954 7.04054Z" fill="black"/>
<path d="M4.55434 6.99264C3.76338 6.91866 2.9691 6.88534 2.17468 6.89279C2.18214 5.81944 2.23166 4.70899 2.31646 3.5675L4.69611 3.66735C4.60725 4.99841 4.51771 6.33419 4.55434 6.99264Z" fill="white"/>
<path opacity="0.2" d="M7.67748 9.32553L5.2985 9.42875L5.19946 6.05489L7.53231 6.00024L7.67748 9.32553Z" fill="black"/>
<path d="M5.19897 6.05597L7.57842 5.95306L7.7238 9.27791L5.34436 9.38081L5.19897 6.05597Z" fill="white"/>
<path opacity="0.2" d="M12.9815 9.24524L10.6201 8.93559L11.1126 5.59613L13.419 5.94559L12.9815 9.24524Z" fill="black"/>
<path d="M11.1116 5.5969L13.4728 5.90689L13.0349 9.20625L10.6737 8.89626L11.1116 5.5969Z" fill="white"/>
<path opacity="0.2" d="M4.86363 11.6847C4.4322 11.8196 3.32106 11.8406 2.4894 11.7994C2.37069 10.7605 2.3829 9.59738 2.41275 8.42621L4.7456 8.38776C4.69404 9.19192 4.73407 10.6228 4.86363 11.6847Z" fill="black"/>
<path d="M4.9112 11.6361C4.47909 11.7711 3.36795 11.7913 2.53697 11.7502C2.41913 10.6456 2.37788 9.53435 2.41351 8.42419L4.79317 8.33649C4.74093 9.14335 4.78096 10.5743 4.9112 11.6361Z" fill="white"/>
<path opacity="0.2" d="M10.7144 6.7032L8.33339 6.75515C8.25334 5.64739 8.27641 4.48904 8.30693 3.38196H10.6411C10.6147 4.5592 10.6323 5.68247 10.7144 6.7032Z" fill="black"/>
<path d="M10.7612 6.6533L8.38022 6.70525C8.30062 5.59749 8.27666 4.48839 8.30831 3.37794L10.6893 3.32599C10.6635 4.51065 10.6825 5.63325 10.7612 6.6533Z" fill="white"/>
<path d="M11.5797 19.8117L11.0515 19.6712L11.2396 18.4218L11.7677 18.5622L11.5797 19.8117Z" fill="#FF8B7B"/>
<path d="M16.4651 20.2865H15.9179L15.4919 19.0309H16.0392L16.4651 20.2865Z" fill="#FF8B7B"/>
<path d="M15.8449 20.2237H16.5121C16.5344 20.2238 16.5536 20.2392 16.5584 20.2608L16.6668 20.7431C16.6718 20.7668 16.6655 20.7916 16.6499 20.8102C16.6342 20.8289 16.6108 20.8395 16.5864 20.839C16.3717 20.8356 16.2156 20.8228 15.9451 20.8228C15.7788 20.8228 15.2772 20.8403 15.0483 20.8403C14.8193 20.8403 14.7886 20.6154 14.8827 20.5945C15.3038 20.5033 15.6214 20.3777 15.7563 20.2568C15.7809 20.2356 15.8123 20.2239 15.8449 20.2237V20.2237Z" fill="#263238"/>
<path d="M11.0719 19.6118L11.6484 19.7651C11.67 19.771 11.6846 19.7909 11.6838 19.813L11.662 20.3061C11.6613 20.3303 11.6493 20.3527 11.6296 20.367C11.6099 20.3813 11.5846 20.3857 11.5612 20.379C11.3567 20.3203 11.0562 20.2277 10.7945 20.1582C10.4885 20.0771 10.22 20.0231 9.86156 19.9279C9.64485 19.8704 9.64349 19.6368 9.73958 19.6415C10.1771 19.6618 10.5171 19.7421 10.9335 19.6185C10.9781 19.6035 11.026 19.6011 11.0719 19.6118Z" fill="#263238"/>
<path d="M13.9 4.12104C13.7194 4.34595 13.532 4.58774 13.3548 4.8248C13.1777 5.06186 13.0073 5.30703 12.8505 5.55287C12.7722 5.67512 12.7006 5.79939 12.6318 5.92298L12.4437 6.28972L12.428 6.32282C12.428 6.32619 12.4239 6.32889 12.4233 6.32822C12.4223 6.32014 12.4223 6.31198 12.4233 6.3039C12.4232 6.28301 12.4209 6.26219 12.4164 6.24177C12.4141 6.23053 12.4109 6.21947 12.4069 6.20867C12.4069 6.20192 12.4021 6.19517 12.3994 6.18841C12.396 6.17889 12.3919 6.16964 12.3871 6.16072C12.375 6.13805 12.3603 6.11677 12.3435 6.09723C12.3198 6.07056 12.292 6.04777 12.2611 6.0297C12.2298 6.01173 12.1957 5.99896 12.1602 5.99187C12.1337 5.98701 12.1067 5.9852 12.0798 5.98647C12.0492 5.98789 12.019 5.99428 11.9905 6.00538C11.9705 6.01222 11.9517 6.02201 11.9346 6.03442C11.9176 6.04726 11.9183 6.04928 11.9176 6.05063C11.9169 6.05198 11.9217 6.05063 11.9258 6.05063C11.95 6.0343 11.9728 6.016 11.9939 5.99593C12.0198 5.97364 12.0457 5.94932 12.0716 5.92366C12.1772 5.82303 12.2863 5.71226 12.4001 5.60893L12.7442 5.83046C12.6891 5.98238 12.6225 6.13002 12.5452 6.27216C12.5032 6.35319 12.4534 6.43008 12.3967 6.50179C12.3862 6.51473 12.3751 6.52713 12.3633 6.53894C12.3444 6.55851 12.3237 6.57616 12.3013 6.59162C12.2759 6.60909 12.2484 6.62338 12.2195 6.63417C12.1862 6.64642 12.1513 6.6537 12.1159 6.65578C12.0867 6.65716 12.0574 6.65512 12.0287 6.6497C11.9907 6.64235 11.9543 6.62865 11.921 6.60918C11.8881 6.59011 11.8584 6.56594 11.8331 6.53759C11.8148 6.51683 11.7988 6.49419 11.7854 6.47005C11.7806 6.45992 11.7752 6.44911 11.7711 6.43898L11.7622 6.41534C11.7568 6.39778 11.7541 6.38698 11.7513 6.37482C11.7452 6.34505 11.7424 6.31469 11.7432 6.28432C11.7436 6.25718 11.7458 6.2301 11.75 6.20327C11.75 6.18369 11.7554 6.16815 11.7581 6.15329C11.7643 6.12358 11.7697 6.09926 11.7752 6.07562C11.7977 5.98309 11.8215 5.90542 11.8488 5.82708C11.876 5.74873 11.9115 5.67039 11.9462 5.59542C12.0144 5.44413 12.0893 5.29825 12.1684 5.15777C12.3253 4.8789 12.4968 4.60837 12.6822 4.3473C12.7735 4.2183 12.8676 4.09065 12.9644 3.9657C13.0611 3.84076 13.1593 3.71986 13.2676 3.59424L13.9 4.12104Z" fill="#FF8B7B"/>
<path d="M14.1972 3.7232C14.3144 4.22772 13.1961 5.51974 13.1961 5.51974L12.193 4.79167C12.4157 4.37308 12.683 3.97933 12.9903 3.61717C13.4496 3.10252 14.0684 3.16871 14.1972 3.7232Z" fill="#FF7171"/>
<path opacity="0.2" d="M14.1972 3.7232C14.3144 4.22772 13.1961 5.51974 13.1961 5.51974L12.193 4.79167C12.4157 4.37308 12.683 3.97933 12.9903 3.61717C13.4496 3.10252 14.0684 3.16871 14.1972 3.7232Z" fill="black"/>
<path opacity="0.2" d="M11.2395 18.4218L11.1421 19.0661L11.6709 19.2066L11.7677 18.5622L11.2395 18.4218Z" fill="black"/>
<path opacity="0.2" d="M16.0392 19.0316H15.4919L15.7121 19.6786H16.2593L16.0392 19.0316Z" fill="black"/>
<path d="M16.6443 3.64763C15.9321 5.66839 15.9192 7.85666 15.8394 8.29566C15.4142 8.2396 13.8127 8.02551 12.9398 7.90866C12.7435 4.80592 13.6035 3.26873 13.6035 3.26873C13.6035 3.26873 13.793 3.24374 14.0492 3.23294C14.1296 3.23294 14.2162 3.22753 14.3061 3.22821C14.3559 3.22821 14.4063 3.22821 14.4574 3.23158C14.8712 3.26398 15.2828 3.31991 15.6902 3.39908C15.7672 3.41326 15.8456 3.42947 15.9212 3.44636C15.9969 3.46324 16.0575 3.47945 16.1257 3.49634C16.418 3.56996 16.6443 3.64763 16.6443 3.64763Z" fill="#FF7171"/>
<path opacity="0.2" d="M16.6443 3.64763C15.9321 5.66839 15.9192 7.85666 15.8394 8.29566C15.4142 8.2396 13.8127 8.02551 12.9398 7.90866C12.7435 4.80592 13.6035 3.26873 13.6035 3.26873C13.6035 3.26873 13.793 3.24374 14.0492 3.23294C14.1296 3.23294 14.2162 3.22753 14.3061 3.22821C14.3559 3.22821 14.4063 3.22821 14.4574 3.23158C14.8712 3.26398 15.2828 3.31991 15.6902 3.39908C15.7672 3.41326 15.8456 3.42947 15.9212 3.44636C15.9969 3.46324 16.0575 3.47945 16.1257 3.49634C16.418 3.56996 16.6443 3.64763 16.6443 3.64763Z" fill="black"/>
<path opacity="0.2" d="M15.9779 4.57831C15.8627 4.88291 15.9527 5.72647 16.0788 6.01419C16.1237 5.71296 16.1789 5.39688 16.2484 5.07269L15.9779 4.57831Z" fill="black"/>
<path d="M12.4055 5.56978L12.8389 5.16455L13.1211 5.79807C12.9608 5.96077 12.7126 6.00176 12.5077 5.89938L12.4055 5.56978Z" fill="#FF8B7B"/>
<path d="M13.1572 4.9538L13.3739 5.51437L13.1211 5.79466L12.839 5.16114L13.1572 4.9538Z" fill="#FF8B7B"/>
<path d="M15.7549 2.00433C15.6234 2.38728 15.4483 3.09712 15.6902 3.39631C15.4455 3.58002 15.13 3.78736 14.6571 3.74076C14.1841 3.69416 14.3102 3.38416 14.4574 3.23152C14.914 3.18627 14.9467 2.85938 14.9113 2.5433L15.7549 2.00433Z" fill="#FF8B7B"/>
<path d="M14.3737 3.12891C14.3737 3.0222 14.8166 2.93238 14.8337 3.03368C14.8507 3.13499 14.6974 3.16876 14.7458 3.30384C14.7942 3.43892 15.2405 3.45243 15.4191 3.26129C15.5376 3.13364 15.5751 3.00532 15.7257 3.08974C15.8763 3.17417 16.0576 3.29236 15.9581 3.47809C15.8586 3.66382 15.2971 4.10283 14.786 3.99004C14.2749 3.87725 14.1324 3.60506 14.2319 3.48687C14.3185 3.38677 14.3684 3.26065 14.3737 3.12891Z" fill="#FF7171"/>
<path opacity="0.2" d="M15.4108 2.22455L14.9113 2.54333C14.9209 2.61676 14.9239 2.6909 14.9201 2.76486C15.1232 2.75656 15.3087 2.64805 15.4142 2.47579C15.4714 2.36706 15.4523 2.24346 15.4108 2.22455Z" fill="black"/>
<path d="M15.8374 1.32899C15.7891 1.86525 15.7877 2.18133 15.5062 2.44946C15.083 2.85469 14.4213 2.58454 14.3075 2.04828C14.2053 1.56267 14.3021 0.765037 14.8377 0.569174C15.0776 0.478591 15.3478 0.517722 15.5515 0.672567C15.7553 0.827412 15.8635 1.07584 15.8374 1.32899Z" fill="#FF8B7B"/>
<path d="M15.879 0.900107C15.481 0.87039 15.4476 1.55524 15.7768 1.84971C16.1748 1.69504 16.7309 0.960217 15.879 0.900107Z" fill="#263238"/>
<path d="M15.4851 1.00682C15.252 0.642114 14.8036 1.22025 14.5821 0.821768C14.4493 0.582004 14.2223 0.842029 14.084 0.698171C13.9456 0.554313 14.1596 0.16799 14.3041 0.133545C14.223 0.22067 14.2073 0.532025 14.4506 0.378036C14.6939 0.224047 14.8684 0.0646551 15.1662 0.32333C15.464 0.582004 15.7754 0.0619536 16.0487 0.458408C16.2886 0.802857 15.7611 1.44043 15.4851 1.00682Z" fill="#263238"/>
<path d="M15.9355 0.950079C15.8716 0.949845 15.8081 0.939587 15.7475 0.919686C15.7341 0.915583 15.7266 0.901522 15.7308 0.88828C15.7349 0.875039 15.7491 0.86763 15.7624 0.871733C15.9369 0.92644 16.1066 0.897398 16.1843 0.800142C16.2449 0.724498 16.2402 0.620488 16.1727 0.507698C16.1655 0.495762 16.1695 0.48034 16.1816 0.473253C16.1936 0.466166 16.2092 0.470097 16.2163 0.482033C16.2947 0.611708 16.2974 0.739357 16.2245 0.83121C16.1516 0.912512 16.0451 0.956298 15.9355 0.950079Z" fill="#263238"/>
<path d="M16.065 1.92801C15.9888 2.04021 15.871 2.11811 15.7372 2.14481C15.5594 2.17791 15.4858 2.01716 15.5478 1.85845C15.6037 1.71594 15.7638 1.52683 15.9362 1.56465C16.1086 1.60247 16.157 1.78888 16.065 1.92801Z" fill="#FF8B7B"/>
<path d="M10.9473 18.8736L11.8414 19.1113C11.8414 19.1113 12.6925 15.987 12.9617 14.3161C13.0435 13.8088 13.2261 13.1064 13.4469 12.3574C13.725 11.4119 14.0637 10.3934 14.3383 9.59576C14.6286 8.75558 14.846 8.16191 14.846 8.16191L12.9379 7.90729C12.9379 7.90729 11.4856 12.3196 11.3221 13.9662C11.1538 15.6797 10.9473 18.8736 10.9473 18.8736Z" fill="#263238"/>
<path opacity="0.2" d="M13.4468 12.3588C13.7248 11.4133 14.0635 10.3948 14.3382 9.59713L14.1692 9.16016C13.656 9.68966 13.4155 11.4126 13.4468 12.3588Z" fill="black"/>
<path d="M13.9681 8.04645C13.9681 8.04645 13.874 12.6911 14.0022 14.2742C14.1432 16.0086 15.4544 19.5531 15.4544 19.5531H16.4562C16.4562 19.5531 15.7876 16.3112 15.5832 14.6227C15.3494 12.7046 15.8394 8.29432 15.8394 8.29432L13.9681 8.04645Z" fill="#263238"/>
<path d="M15.3346 19.5747H16.5142V19.2255L15.1956 19.2025L15.3346 19.5747Z" fill="#FF7171"/>
<path d="M10.8293 18.8642L11.8952 19.1478L11.9879 18.8068L10.8607 18.4886L10.8293 18.8642Z" fill="#FF7171"/>
<path d="M15.0116 1.45661C15.0116 1.49983 14.9863 1.53495 14.957 1.53428C14.9277 1.5336 14.9059 1.49713 14.9073 1.45323C14.9087 1.40933 14.9332 1.37488 14.9618 1.37556C14.9904 1.37623 15.0129 1.41271 15.0116 1.45661Z" fill="#263238"/>
<path d="M14.5134 1.44039C14.5134 1.48429 14.4875 1.51874 14.4589 1.51806C14.4303 1.51739 14.4078 1.48092 14.4085 1.43769C14.4091 1.39447 14.4344 1.35867 14.463 1.36002C14.4916 1.36137 14.5141 1.39852 14.5134 1.44039Z" fill="#263238"/>
<path d="M14.6707 1.46881C14.6145 1.60091 14.54 1.72458 14.4492 1.83622C14.5089 1.88148 14.5858 1.89806 14.6591 1.88147L14.6707 1.46881Z" fill="#FF5652"/>
<path d="M14.8418 2.00369C14.9414 1.99532 15.0329 1.94641 15.0947 1.86861C15.0993 1.86368 15.0993 1.85599 15.0947 1.85105C15.0918 1.84901 15.0882 1.84821 15.0847 1.84885C15.0813 1.84949 15.0782 1.8515 15.0763 1.85443C15.0048 1.94119 14.8953 1.98826 14.7826 1.98073C14.779 1.98054 14.7755 1.98181 14.773 1.98424C14.7704 1.98667 14.7689 1.99004 14.7689 1.99356C14.7689 2.00039 14.7743 2.00603 14.7812 2.00639C14.8014 2.00702 14.8217 2.00611 14.8418 2.00369Z" fill="#263238"/>
<path d="M15.1696 1.30132C15.174 1.30088 15.1783 1.29925 15.1819 1.29659C15.1875 1.29265 15.1913 1.28667 15.1924 1.27995C15.1936 1.27324 15.192 1.26635 15.188 1.2608C15.1411 1.19232 15.0636 1.15055 14.9801 1.14868C14.9733 1.14903 14.9668 1.15208 14.9622 1.15714C14.9576 1.16221 14.9552 1.16889 14.9556 1.1757C14.9558 1.18245 14.9587 1.18884 14.9637 1.19342C14.9687 1.198 14.9754 1.20038 14.9822 1.20001C15.0483 1.2022 15.1092 1.23591 15.1457 1.29051C15.1512 1.29802 15.1603 1.30213 15.1696 1.30132Z" fill="#263238"/>
<path d="M14.3055 1.26618C14.314 1.2654 14.3215 1.26028 14.3253 1.25267C14.3539 1.19342 14.4098 1.15162 14.4752 1.14056C14.4879 1.13761 14.4964 1.12573 14.4951 1.11284C14.4937 1.09996 14.4828 1.09012 14.4697 1.0899C14.3872 1.1026 14.3162 1.15458 14.2796 1.22904C14.2763 1.23501 14.2756 1.24206 14.2776 1.24856C14.2797 1.25507 14.2844 1.26046 14.2905 1.26348C14.2951 1.26603 14.3003 1.26698 14.3055 1.26618Z" fill="#263238"/>
<path fill-rule="evenodd" clip-rule="evenodd" d="M15.8075 20.3056C15.7606 20.3179 15.7127 20.3248 15.6644 20.3263C15.627 20.3288 15.5898 20.3182 15.5588 20.2964C15.5394 20.2786 15.5295 20.2521 15.5322 20.2252C15.5324 20.2091 15.541 20.1944 15.5547 20.1868C15.6129 20.1557 15.7812 20.2616 15.8095 20.2794C15.8103 20.2799 15.811 20.2804 15.8116 20.2807C15.8157 20.2838 15.8178 20.289 15.817 20.2943C15.8164 20.2997 15.8126 20.3042 15.8075 20.3056ZM15.7665 20.2872C15.7676 20.2869 15.7687 20.2867 15.7698 20.2865V20.2893C15.7687 20.2886 15.7676 20.2879 15.7665 20.2872ZM15.5756 20.2758C15.6052 20.3018 15.6748 20.3056 15.7665 20.2872C15.6953 20.2416 15.5996 20.1943 15.5661 20.2111C15.5606 20.2145 15.5575 20.2208 15.5579 20.2274C15.5553 20.2457 15.562 20.264 15.5756 20.2758Z" fill="#FF7171"/>
<path fill-rule="evenodd" clip-rule="evenodd" d="M15.8123 20.2994C15.8098 20.3001 15.8072 20.3001 15.8048 20.2994L15.7987 20.3C15.7421 20.2696 15.6331 20.1508 15.6447 20.09C15.6486 20.0707 15.6657 20.0568 15.6855 20.0569C15.7055 20.0539 15.7257 20.0599 15.7407 20.0731C15.8041 20.1244 15.8177 20.2811 15.8177 20.2879C15.8184 20.2924 15.8163 20.297 15.8123 20.2994ZM15.7238 20.0927C15.7157 20.0853 15.7049 20.0811 15.6938 20.0812H15.6884C15.6693 20.0833 15.6693 20.0914 15.6693 20.0948C15.6625 20.1272 15.732 20.2197 15.7885 20.2622C15.7849 20.2005 15.7623 20.1414 15.7238 20.0927Z" fill="#FF7171"/>
<path fill-rule="evenodd" clip-rule="evenodd" d="M11.0113 19.6624C11.0094 19.6669 11.0052 19.67 11.0004 19.6706L10.9984 19.6712C10.9084 19.6651 10.7517 19.6469 10.7074 19.5794C10.694 19.5593 10.6915 19.5341 10.7006 19.5118C10.7048 19.4982 10.7159 19.4877 10.7299 19.4841C10.8035 19.4659 10.9875 19.6294 11.0079 19.6483C11.0119 19.6518 11.0133 19.6575 11.0113 19.6624ZM10.9617 19.6437C10.8881 19.5795 10.7852 19.5086 10.7416 19.5086L10.7362 19.5113C10.7306 19.5127 10.7264 19.5172 10.7253 19.5228C10.719 19.5371 10.7205 19.5537 10.7294 19.5667C10.7539 19.6038 10.8397 19.6315 10.9617 19.6437Z" fill="#FF7171"/>
<path fill-rule="evenodd" clip-rule="evenodd" d="M11.0038 19.6706H11.0004C10.9971 19.6709 10.9937 19.6702 10.9908 19.6686C10.9329 19.6226 10.8389 19.4767 10.8648 19.42C10.8709 19.4065 10.8852 19.3923 10.9206 19.3977C10.9467 19.4016 10.9699 19.416 10.9847 19.4376C11.0319 19.5026 11.0162 19.6266 11.0126 19.6553C11.0122 19.6585 11.012 19.6605 11.012 19.6611C11.0111 19.6655 11.008 19.669 11.0038 19.6706ZM10.9164 19.4208H10.9028C10.8931 19.4214 10.8899 19.4257 10.8888 19.4272C10.8887 19.4273 10.8886 19.4275 10.8885 19.4276C10.8728 19.4627 10.9348 19.5741 10.9893 19.6302C10.9992 19.5691 10.9902 19.5064 10.9634 19.4505C10.9528 19.4344 10.9357 19.4236 10.9164 19.4208Z" fill="#FF7171"/>
<path d="M16.7867 4.06635C16.8657 4.41822 16.9325 4.76808 16.9911 5.12198C17.0497 5.47588 17.1022 5.83046 17.1431 6.18977L17.1574 6.32485L17.1656 6.4086C17.1718 6.47419 17.1658 6.54036 17.1479 6.60379C17.1236 6.69196 17.0747 6.77156 17.0068 6.83342C16.95 6.88396 16.8825 6.92113 16.8092 6.94216C16.7239 6.96597 16.6348 6.97308 16.5468 6.96309C16.4325 6.95064 16.32 6.92526 16.2115 6.88745C16.1141 6.85436 16.0241 6.81991 15.9389 6.77871C15.7679 6.7013 15.6012 6.61496 15.4394 6.52004C15.2792 6.42616 15.1259 6.32958 14.9733 6.21949L15.1675 5.86086C15.498 5.97432 15.8347 6.09589 16.1577 6.18369C16.2381 6.20598 16.3178 6.22489 16.3935 6.2384C16.4567 6.25271 16.5214 6.25951 16.5863 6.25866C16.6061 6.25866 16.6218 6.24988 16.5904 6.25529C16.5599 6.26309 16.5319 6.27869 16.5093 6.30054C16.4739 6.33162 16.448 6.37184 16.4343 6.4167C16.4286 6.4372 16.4252 6.45827 16.4241 6.47952C16.4241 6.491 16.4241 6.47276 16.4207 6.46331L16.4146 6.43089L16.3901 6.30256C16.3233 5.95946 16.2551 5.61524 16.1856 5.26989C16.1175 4.92477 16.0452 4.57762 15.9812 4.23384L16.7867 4.06635Z" fill="#FF8B7B"/>
<path d="M16.8269 3.78068C17.184 4.15957 17.2161 5.32327 17.2161 5.32327L16.1823 5.80617C16.1823 5.80617 15.847 5.06662 15.8361 4.39731C15.8252 3.63817 16.4692 3.39908 16.8269 3.78068Z" fill="#FF7171"/>
<path opacity="0.2" d="M16.8269 3.78068C17.184 4.15957 17.2161 5.32327 17.2161 5.32327L16.1823 5.80617C16.1823 5.80617 15.847 5.06662 15.8361 4.39731C15.8252 3.63817 16.4692 3.39908 16.8269 3.78068Z" fill="black"/>
<path d="M13.121 5.19491C13.1151 5.19486 13.1093 5.19348 13.104 5.19086C13.0878 5.18121 13.0824 5.16051 13.0917 5.14426L13.6369 4.21154C13.6472 4.19754 13.6665 4.19351 13.6816 4.20221C13.6967 4.21091 13.7027 4.22953 13.6955 4.24531L13.1538 5.17803C13.147 5.1894 13.1343 5.19595 13.121 5.19491Z" fill="#263238"/>
<path d="M14.8124 7.7891L12.7523 7.49193C12.6654 7.47883 12.5984 7.40911 12.5895 7.32241L12.4532 4.504C12.4511 4.4659 12.4673 4.42906 12.4967 4.4045C12.5262 4.37995 12.5656 4.37052 12.6031 4.37906L14.6632 4.67555C14.7502 4.68932 14.8171 4.759 14.8268 4.84575L14.9596 7.66416C14.9615 7.70167 14.9457 7.73792 14.9169 7.76235C14.8881 7.78678 14.8496 7.79666 14.8124 7.7891Z" fill="white"/>
<path d="M14.7662 7.81746L12.7061 7.51894C12.619 7.50589 12.5518 7.43622 12.5425 7.34941L12.4096 4.53101C12.4074 4.49297 12.4233 4.45609 12.4527 4.4315C12.4821 4.40691 12.5214 4.39748 12.5589 4.40606L14.619 4.70256C14.7063 4.71567 14.7736 4.78569 14.7825 4.87276L14.9188 7.69048C14.9221 7.72962 14.906 7.76791 14.8757 7.79316C14.8453 7.81841 14.8045 7.82747 14.7662 7.81746Z" fill="#263238"/>
<path d="M15.2071 5.87099L14.7226 5.60083L14.666 6.29108C14.666 6.29108 15.1294 6.43021 15.231 6.1945L15.2071 5.87099Z" fill="#FF8B7B"/>
<path d="M14.1829 5.72442L14.251 6.24042L14.666 6.29175L14.7226 5.6015L14.1829 5.72442Z" fill="#FF8B7B"/>
</svg>
