<svg width="19" height="17" viewBox="0 0 19 17" fill="none" xmlns="http://www.w3.org/2000/svg">
<path fill-rule="evenodd" clip-rule="evenodd" d="M0.27655 10.1757C1.66379 13.4409 4.86316 15.7838 8.6647 15.9165C13.8832 16.0988 18.2603 12.0471 18.4412 6.86686C18.5122 4.8348 17.9269 2.93093 16.8743 1.35637L16.0417 1.79875C17.0205 3.23072 17.567 4.97271 17.5019 6.83414C17.339 11.4996 13.3969 15.1486 8.69702 14.9845C5.24207 14.8638 2.33937 12.7162 1.10872 9.73355L0.27655 10.1757Z" fill="#68D585"/>
<path fill-rule="evenodd" clip-rule="evenodd" d="M2.97989 10.4999C4.21945 12.3734 6.32781 13.6423 8.75943 13.7272C12.7354 13.8661 16.0701 10.7868 16.2076 6.84954C16.3015 4.15955 14.8788 1.765 12.7 0.473536L12.0315 1.1631C14.0326 2.25768 15.3554 4.40025 15.271 6.81694C15.1514 10.242 12.2506 12.9207 8.79176 12.8C6.59867 12.7234 4.70785 11.5397 3.64817 9.81052L2.97989 10.4999Z" fill="#161C2D"/>
</svg>
