<svg width="23" height="21" viewBox="0 0 23 21" fill="none" xmlns="http://www.w3.org/2000/svg">
<rect x="0.932861" y="9.66412" width="21.1606" height="0.760787" fill="#407BFF"/>
<rect opacity="0.3" x="0.932861" y="9.66412" width="5.66337" height="0.760787" fill="white"/>
<path d="M6.6865 10.4249H6.19385L6.4517 19.96H6.6865H6.92131L7.17978 10.4249H6.6865Z" fill="#407BFF"/>
<path opacity="0.3" d="M6.45166 19.96H6.68646V10.6296L6.2019 10.7183L6.45166 19.96Z" fill="white"/>
<path d="M2.01719 10.4249H1.52454L1.78239 19.96H2.01719H2.252L2.50985 10.4249H2.01719Z" fill="#407BFF"/>
<path opacity="0.3" d="M1.78236 19.96H2.01717V10.6296L1.53198 10.7183L1.78236 19.96Z" fill="white"/>
<path d="M21.009 10.4249H20.5164L20.7742 19.96H21.009H21.2438L21.5023 10.4249H21.009Z" fill="#407BFF"/>
<path opacity="0.3" d="M20.7743 19.96H21.0091V10.6296L20.5245 10.7183L20.7743 19.96Z" fill="white"/>
<path d="M16.3397 10.4249H15.847L16.1049 19.96H16.3397H16.5745L16.8324 10.4249H16.3397Z" fill="#407BFF"/>
<path opacity="0.3" d="M16.105 19.96H16.3398V10.6296L15.8552 10.7183L16.105 19.96Z" fill="white"/>
<path d="M10.9772 5.59121H5.94598C5.86316 5.58792 5.78377 5.62454 5.7324 5.68972C5.68103 5.7549 5.66388 5.84077 5.68626 5.92074L6.35642 9.12553C6.40074 9.31177 6.56291 9.446 6.75379 9.45443H11.7887C11.8714 9.45766 11.9506 9.42112 12.002 9.3561C12.0533 9.29109 12.0706 9.20541 12.0484 9.12553L11.3777 5.92074C11.3333 5.73317 11.1694 5.59835 10.9772 5.59121Z" fill="#263238"/>
<path d="M6.79735 9.27158C6.66861 9.26287 6.56005 9.17222 6.52829 9.0469L5.85812 5.84211C5.84651 5.79915 5.85498 5.75324 5.88117 5.71729C5.90833 5.68651 5.94796 5.66975 5.98892 5.67173H11.0239C11.1526 5.68043 11.2612 5.77109 11.2929 5.89641L11.9631 9.1012C11.9747 9.14415 11.9662 9.19007 11.94 9.22602C11.913 9.25703 11.8733 9.27384 11.8323 9.27158H6.79735Z" fill="white"/>
<path opacity="0.4" d="M10.5961 9.01503L9.96077 5.97625C9.95354 5.93983 9.96287 5.90207 9.98623 5.87324C10.0096 5.8444 10.0445 5.82749 10.0816 5.82709H10.8987C10.9571 5.82754 11.0073 5.86852 11.0196 5.9257L11.6549 8.96198C11.6621 8.9984 11.6528 9.03616 11.6294 9.06499C11.606 9.09383 11.5711 9.11074 11.534 9.11114H10.7169C10.6593 9.11096 10.6093 9.07121 10.5961 9.01503Z" fill="#407BFF"/>
<path d="M6.27728 6.09299L6.24988 5.9613H7.25886L7.28626 6.09299H6.27728Z" fill="#407BFF"/>
<path d="M6.74322 6.42002L6.71582 6.28833H8.48403L8.51206 6.42002H6.74322Z" fill="#EBEBEB"/>
<path d="M6.83662 6.74643L6.80859 6.61475H8.79105L8.81846 6.74643H6.83662Z" fill="#EBEBEB"/>
<path d="M6.92938 7.07346L6.90198 6.94177H8.49766L8.52569 7.07346H6.92938Z" fill="#EBEBEB"/>
<path d="M6.5843 7.60337L6.55627 7.47168H7.19467L7.22208 7.60337H6.5843Z" fill="#407BFF"/>
<path d="M7.04962 7.92978L7.02222 7.7981H7.79951L7.82753 7.92978H7.04962Z" fill="#EBEBEB"/>
<path d="M8.01375 7.92978L7.98572 7.7981H8.76363L8.79103 7.92978H8.01375Z" fill="#EBEBEB"/>
<path d="M7.14313 8.25681L7.11572 8.12512H9.74406L9.77146 8.25681H7.14313Z" fill="#EBEBEB"/>
<path d="M7.2359 8.58322L7.2085 8.45154H9.21276L9.24016 8.58322H7.2359Z" fill="#EBEBEB"/>
<path d="M13.3277 9.43512H6.70328C6.52266 9.43512 6.40557 9.5381 6.44356 9.66417H13.725C13.6877 9.5381 13.5083 9.43512 13.3277 9.43512Z" fill="#263238"/>
<path opacity="0.1" d="M4.52661 4.78109L3.8907 1.74418C3.88368 1.70785 3.89311 1.67027 3.91644 1.64159C3.93977 1.61291 3.9746 1.59608 4.01153 1.59564H9.15609C9.21425 1.59603 9.26441 1.6367 9.27691 1.69363L9.91282 4.72804C9.92005 4.76446 9.91072 4.80222 9.88736 4.83105C9.86401 4.85988 9.82905 4.8768 9.79199 4.8772H4.64744C4.58982 4.87702 4.53986 4.83727 4.52661 4.78109Z" fill="#407BFF"/>
<path d="M6.35513 1.69557H5.27514L5.25085 1.57886H6.33084L6.35513 1.69557Z" fill="#407BFF"/>
<path opacity="0.4" d="M6.17946 1.88154H5.74597L5.72168 1.76483H6.15517L6.17946 1.88154Z" fill="#407BFF"/>
<path opacity="0.4" d="M6.90082 1.88154H6.23315L6.20886 1.76483H6.87653L6.90082 1.88154Z" fill="#407BFF"/>
<path opacity="0.4" d="M7.19163 2.0669H5.78467L5.76038 1.9502H7.16797L7.19163 2.0669Z" fill="#407BFF"/>
<path opacity="0.4" d="M7.01284 2.25288H5.82324L5.79895 2.13617H6.98855L7.01284 2.25288Z" fill="#407BFF"/>
<path opacity="0.4" d="M7.80204 4.22571H7.04468L7.06897 4.34179H7.82633L7.80204 4.22571Z" fill="#407BFF"/>
<path d="M6.85779 3.97108H5.74853L5.72424 3.85437H6.8335L6.85779 3.97108Z" fill="#407BFF"/>
<path opacity="0.4" d="M7.30374 4.41101H6.27234L6.29663 4.52772H7.32803L7.30374 4.41101Z" fill="#407BFF"/>
<path opacity="0.4" d="M6.99112 4.22571H6.23376L6.25805 4.34179H7.01541L6.99112 4.22571Z" fill="#407BFF"/>
<path opacity="0.4" d="M7.70991 4.03967H6.19519L6.21948 4.15638H7.7342L7.70991 4.03967Z" fill="#407BFF"/>
<path d="M6.3172 0.82928H5.09521L5.07092 0.713196H6.29291L6.3172 0.82928Z" fill="#407BFF"/>
<path opacity="0.4" d="M6.92068 1.2699H5.57288L5.59717 1.38661H6.94434L6.92068 1.2699Z" fill="#407BFF"/>
<path opacity="0.4" d="M6.65103 1.08453H5.5343L5.55859 1.20062H6.67532L6.65103 1.08453Z" fill="#407BFF"/>
<path opacity="0.4" d="M6.72507 0.89856H5.49561L5.5199 1.01527H6.74936L6.72507 0.89856Z" fill="#407BFF"/>
<path d="M6.30351 2.55494H5.45398L5.42969 2.43823H6.27922L6.30351 2.55494Z" fill="#407BFF"/>
<path opacity="0.4" d="M7.6375 2.99493H5.97766L6.00195 3.11164H7.66116L7.6375 2.99493Z" fill="#407BFF"/>
<path opacity="0.4" d="M6.62669 2.80957H5.93909L5.96338 2.92628H6.65098L6.62669 2.80957Z" fill="#407BFF"/>
<path opacity="0.4" d="M7.37278 2.80957H6.68518L6.70947 2.92628H7.39707L7.37278 2.80957Z" fill="#407BFF"/>
<path opacity="0.4" d="M7.41523 2.6236H5.90051L5.9248 2.7403H7.4389L7.41523 2.6236Z" fill="#407BFF"/>
<path opacity="0.4" d="M7.41203 3.55225H6.09351L6.1178 3.66833H7.43632L7.41203 3.55225Z" fill="#407BFF"/>
<path opacity="0.4" d="M6.43872 3.36627H6.05505L6.07934 3.48298H6.46238L6.43872 3.36627Z" fill="#407BFF"/>
<path opacity="0.4" d="M7.03843 3.36627H6.49097L6.51526 3.48298H7.06272L7.03843 3.36627Z" fill="#407BFF"/>
<path opacity="0.4" d="M7.53107 3.18091H6.01636L6.04065 3.29699H7.55537L7.53107 3.18091Z" fill="#407BFF"/>
<path opacity="0.4" d="M8.72388 3.14967H8.18139L8.1571 3.03296H8.70021L8.72388 3.14967Z" fill="#407BFF"/>
<path opacity="0.4" d="M9.62685 3.14967H8.79101L8.76672 3.03296H9.60256L9.62685 3.14967Z" fill="#407BFF"/>
<path opacity="0.4" d="M9.98183 3.3357H8.21985L8.19556 3.21899H9.95754L9.98183 3.3357Z" fill="#407BFF"/>
<path opacity="0.4" d="M9.74772 3.52107H8.25854L8.23425 3.40436H9.72343L9.74772 3.52107Z" fill="#407BFF"/>
<path opacity="0.4" d="M10.4148 2.41144H8.72754L8.75183 2.52752H10.4391L10.4148 2.41144Z" fill="#407BFF"/>
<path opacity="0.4" d="M10.0872 2.2254H8.68896L8.71326 2.34211H10.1109L10.0872 2.2254Z" fill="#407BFF"/>
<path d="M9.83431 2.04004H8.29468L8.31897 2.15612H9.8586L9.83431 2.04004Z" fill="#407BFF"/>
<path opacity="0.4" d="M10.4907 4.26373H8.41296L8.43725 4.38044H10.515L10.4907 4.26373Z" fill="#407BFF"/>
<path opacity="0.4" d="M9.23514 4.07837H8.37439L8.39868 4.19445H9.25943L9.23514 4.07837Z" fill="#407BFF"/>
<path opacity="0.4" d="M10.1693 4.07837H9.30859L9.33288 4.19445H10.1936L10.1693 4.07837Z" fill="#407BFF"/>
<path opacity="0.4" d="M10.2317 3.8924H8.33582L8.36011 4.0091H10.256L10.2317 3.8924Z" fill="#407BFF"/>
<path opacity="0.4" d="M10.1793 4.82043H8.52881L8.5531 4.93714H10.2036L10.1793 4.82043Z" fill="#407BFF"/>
<path opacity="0.4" d="M8.97043 4.63507H8.49023L8.51452 4.75178H8.99472L8.97043 4.63507Z" fill="#407BFF"/>
<path opacity="0.4" d="M9.72161 4.63507H9.0365L9.06079 4.75178H9.7459L9.72161 4.63507Z" fill="#407BFF"/>
<path opacity="0.4" d="M10.3482 4.4491H8.45166L8.47595 4.5658H10.3718L10.3482 4.4491Z" fill="#407BFF"/>
<path opacity="0.4" d="M5.29821 4.9646H4.00647L4.03076 5.08131H5.3225L5.29821 4.9646Z" fill="#407BFF"/>
<path opacity="0.4" d="M4.91646 4.77924H3.9679L3.99219 4.89532H4.94013L4.91646 4.77924Z" fill="#407BFF"/>
<path opacity="0.4" d="M5.93098 4.77924H4.98303L5.00732 4.89532H5.95589L5.93098 4.77924Z" fill="#407BFF"/>
<path opacity="0.4" d="M5.82583 4.59326H3.92932L3.95361 4.70997H5.8495L5.82583 4.59326Z" fill="#407BFF"/>
<path d="M20.3301 8.45154H19.5304L19.6238 9.66418H20.2367L20.3301 8.45154Z" fill="#407BFF"/>
<path opacity="0.4" d="M20.3301 8.45154H19.5304L19.6238 9.66418H20.2367L20.3301 8.45154Z" fill="white"/>
<path d="M2.90227 7.60956H4.05201L3.65963 9.66412H2.50989L2.90227 7.60956Z" fill="#263238"/>
<path d="M4.36651 7.05914H2.7428L3.19746 9.66417H4.82117L4.36651 7.05914Z" fill="#407BFF"/>
<path d="M2.64685 7.05914H2.74277L3.19743 9.66417H3.10151L2.64685 7.05914Z" fill="#407BFF"/>
<path opacity="0.3" d="M2.64685 7.05914H2.74277L3.19743 9.66417H3.10151L2.64685 7.05914Z" fill="black"/>
<path d="M3.43099 9.38516L3.07349 7.33746H4.13354L4.49042 9.38516H3.43099Z" fill="white"/>
<path opacity="0.6" d="M4.44001 9.38516L4.08313 7.33746H4.13358L4.49046 9.38516H4.44001Z" fill="#407BFF"/>
<path d="M12.4617 3.77666C12.4848 3.82676 12.4773 3.87999 12.4442 3.89502C12.4112 3.91005 12.3663 3.88187 12.3433 3.83239C12.3202 3.78292 12.3283 3.72906 12.3607 3.71403C12.3931 3.699 12.4386 3.72405 12.4617 3.77666Z" fill="#263238"/>
<path d="M12.4817 3.87561C12.4817 3.87561 12.5016 4.21755 12.4406 4.41544C12.5652 4.4574 12.6999 4.35282 12.6999 4.35282L12.4817 3.87561Z" fill="#FF5652"/>
<path d="M12.4679 3.36272C12.4626 3.36712 12.4561 3.36975 12.4492 3.37023C12.3669 3.37242 12.2907 3.41411 12.2441 3.48233C12.2385 3.49282 12.2277 3.49943 12.2159 3.49955C12.204 3.49968 12.1931 3.49332 12.1873 3.48295C12.1815 3.47258 12.1817 3.45986 12.188 3.44977C12.2453 3.36237 12.3414 3.30841 12.4455 3.3051C12.4595 3.30433 12.4724 3.31265 12.4775 3.32575C12.4826 3.33885 12.4787 3.35376 12.4679 3.36272Z" fill="#263238"/>
<path d="M14.2978 3.69904C14.4904 4.36913 14.7055 4.88892 14.968 5.18577C14.968 5.18577 14.973 5.71245 14.0796 5.96295C13.0971 6.2385 13.4736 5.60473 13.4736 5.60473C13.9724 5.32605 13.925 4.9052 13.5497 4.74488L14.2978 3.69904Z" fill="#FF8B7B"/>
<path d="M15.1763 5.05736C15.1588 4.8125 15.1358 4.53319 14.9855 4.52567C14.8197 4.51816 13.8596 4.94902 13.6545 5.25275C13.4494 5.55649 13.8502 5.85396 13.8502 5.85396L15.1763 5.05736Z" fill="#263238"/>
<path d="M13.2111 8.84933L12.382 8.82178L12.3969 9.51943C12.3969 9.51943 13.1201 9.44427 13.1519 9.25327L13.2111 8.84933Z" fill="#FF8B7B"/>
<path d="M11.9437 9.16432L11.8564 9.52129L12.397 9.52004L12.382 8.82239L11.9437 9.16432Z" fill="#FF8B7B"/>
<path d="M16.5391 5.95038L16.5216 6.12949C16.516 6.1871 16.5085 6.24346 16.501 6.30045C16.4867 6.41381 16.4686 6.52716 16.4493 6.63988C16.4119 6.86596 16.3632 7.09079 16.3071 7.31687C16.2501 7.54728 16.181 7.7745 16.1002 7.9976C16.0571 8.11221 16.0122 8.22681 15.9586 8.3433C15.9046 8.46548 15.8421 8.58372 15.7716 8.69713C15.7548 8.72657 15.7336 8.75976 15.713 8.78731C15.6924 8.81487 15.6725 8.84994 15.6507 8.87875C15.6288 8.90755 15.6058 8.94137 15.5771 8.9708L15.5366 9.01715C15.5221 9.03425 15.5067 9.05055 15.4904 9.066C15.3655 9.18893 15.219 9.28765 15.0584 9.3572C14.812 9.46338 14.5505 9.52995 14.2835 9.55447C14.1619 9.56888 14.0416 9.57451 13.9237 9.57765C13.8059 9.58078 13.6881 9.57765 13.5721 9.57138C13.4562 9.56512 13.3414 9.5551 13.2274 9.54132C13.1133 9.52755 13.0023 9.50938 12.8813 9.48496L12.9013 8.83052C13.2994 8.7606 13.6929 8.66649 14.0796 8.54871C14.1656 8.52062 14.2501 8.48801 14.3327 8.45101C14.403 8.4212 14.4703 8.38449 14.5335 8.34142C14.5702 8.31919 14.6013 8.28876 14.6245 8.25249L14.6426 8.22368C14.6509 8.21138 14.6586 8.19863 14.6656 8.18548C14.6745 8.17111 14.6826 8.15626 14.6899 8.14102C14.698 8.12473 14.7068 8.1097 14.7149 8.09154C14.7881 7.93092 14.8484 7.76463 14.8951 7.5943C14.9462 7.41018 14.9942 7.21854 15.0328 7.02002C15.0715 6.8215 15.1089 6.6211 15.1432 6.41882L15.1906 6.11446L15.2336 5.81824L16.5391 5.95038Z" fill="#407BFF"/>
<path opacity="0.2" d="M16.5391 5.95038L16.5216 6.12949C16.516 6.1871 16.5085 6.24346 16.501 6.30045C16.4867 6.41381 16.4686 6.52716 16.4493 6.63988C16.4119 6.86596 16.3632 7.09079 16.3071 7.31687C16.2501 7.54728 16.181 7.7745 16.1002 7.9976C16.0571 8.11221 16.0122 8.22681 15.9586 8.3433C15.9046 8.46548 15.8421 8.58372 15.7716 8.69713C15.7548 8.72657 15.7336 8.75976 15.713 8.78731C15.6924 8.81487 15.6725 8.84994 15.6507 8.87875C15.6288 8.90755 15.6058 8.94137 15.5771 8.9708L15.5366 9.01715C15.5221 9.03425 15.5067 9.05055 15.4904 9.066C15.3655 9.18893 15.219 9.28765 15.0584 9.3572C14.812 9.46338 14.5505 9.52995 14.2835 9.55447C14.1619 9.56888 14.0416 9.57451 13.9237 9.57765C13.8059 9.58078 13.6881 9.57765 13.5721 9.57138C13.4562 9.56512 13.3414 9.5551 13.2274 9.54132C13.1133 9.52755 13.0023 9.50938 12.8813 9.48496L12.9013 8.83052C13.2994 8.7606 13.6929 8.66649 14.0796 8.54871C14.1656 8.52062 14.2501 8.48801 14.3327 8.45101C14.403 8.4212 14.4703 8.38449 14.5335 8.34142C14.5702 8.31919 14.6013 8.28876 14.6245 8.25249L14.6426 8.22368C14.6509 8.21138 14.6586 8.19863 14.6656 8.18548C14.6745 8.17111 14.6826 8.15626 14.6899 8.14102C14.698 8.12473 14.7068 8.1097 14.7149 8.09154C14.7881 7.93092 14.8484 7.76463 14.8951 7.5943C14.9462 7.41018 14.9942 7.21854 15.0328 7.02002C15.0715 6.8215 15.1089 6.6211 15.1432 6.41882L15.1906 6.11446L15.2336 5.81824L16.5391 5.95038Z" fill="black"/>
<path d="M12.8576 6.78266C13.1668 8.12148 13.3408 9.4882 13.377 10.8621H17.0272C17.0471 10.4093 16.9711 7.85606 16.6039 6.01174C16.538 5.67427 16.3395 5.37771 16.0532 5.18913C15.7669 5.00055 15.4171 4.93588 15.0827 5.00973L15.0652 5.01412C14.6095 5.11807 13.9555 5.28591 13.569 5.43308L13.5534 5.43934C13.0187 5.64819 12.721 6.22293 12.8576 6.78266Z" fill="#407BFF"/>
<path opacity="0.2" d="M13.0952 7.95381C13.1239 8.12979 13.1532 8.31642 13.18 8.51181C13.4786 8.19868 13.5734 7.23926 13.5734 7.23926L13.0952 7.95381Z" fill="black"/>
<path d="M10.0628 8.89504L9.23422 8.81738L9.20679 9.5144C9.48588 9.5918 9.78468 9.50711 9.98234 9.29459L10.0628 8.89504Z" fill="#FF8B7B"/>
<path d="M8.84029 9.02279L8.57471 9.50188L9.20937 9.5144L9.2368 8.81738L8.84029 9.02279Z" fill="#FF8B7B"/>
<path d="M14.2274 6.4614C14.17 6.57099 14.1189 6.66806 14.0615 6.76826C14.0042 6.86846 13.9493 6.96616 13.8901 7.06323C13.7729 7.25862 13.6513 7.45026 13.5229 7.64001C13.265 8.0286 12.9794 8.39781 12.6682 8.74472C12.5015 8.93149 12.3203 9.10467 12.1264 9.26264C12.1021 9.2833 12.0734 9.30334 12.0466 9.32526C12.0198 9.34718 11.9961 9.36472 11.9562 9.38789C11.9163 9.41106 11.8826 9.43423 11.8465 9.45427C11.8103 9.47431 11.7729 9.49247 11.7361 9.50876C11.5986 9.56873 11.4547 9.61265 11.3072 9.63964C11.0492 9.68333 10.7863 9.68923 10.5266 9.65718C10.405 9.64318 10.2843 9.62227 10.1651 9.59455C10.1056 9.58078 10.047 9.56512 9.98924 9.54758C9.9269 9.53005 9.8764 9.51064 9.80969 9.48496L9.91256 8.83866C10.3041 8.78543 10.7274 8.71717 11.0192 8.5844C11.0839 8.55767 11.1449 8.52251 11.2006 8.47982C11.223 8.46433 11.2439 8.44671 11.2629 8.42721C11.2673 8.42158 11.2866 8.40467 11.301 8.39089C11.3153 8.37711 11.3321 8.36396 11.3477 8.34768C11.4812 8.21485 11.6061 8.07366 11.7218 7.92496C11.9728 7.59969 12.2073 7.26192 12.4244 6.91293C12.5366 6.7357 12.6457 6.55534 12.7548 6.37435L12.9157 6.10255L13.0709 5.83514L14.2274 6.4614Z" fill="#407BFF"/>
<path d="M13.2255 19.5332H12.5435L12.2 17.9457H12.8826L13.2255 19.5332Z" fill="#FF8B7B"/>
<path d="M12.5054 19.3867H13.2722C13.2996 19.3877 13.3231 19.4065 13.3302 19.4331L13.4649 20.043C13.4714 20.0731 13.4638 20.1044 13.4444 20.1281C13.4249 20.1518 13.3957 20.1652 13.3651 20.1645C13.0977 20.1601 12.9674 20.1445 12.6301 20.1445C12.4225 20.1445 12.1563 20.1658 11.8701 20.1658C11.584 20.1658 11.5459 19.8815 11.6631 19.8558C12.1893 19.7399 12.2242 19.5809 12.3944 19.4287C12.4249 19.4013 12.4645 19.3864 12.5054 19.3867Z" fill="#263238"/>
<g opacity="0.2">
<path d="M12.8832 17.9463H12.2L12.3907 18.8256L13.0603 18.7648L12.8832 17.9463Z" fill="black"/>
</g>
<path d="M14.079 2.89363C14.3284 3.5274 14.5017 3.88625 14.3372 4.34654C14.0878 5.03856 13.2031 5.1087 12.7729 4.56135C12.3864 4.06849 12.0485 3.1147 12.5367 2.59053C12.754 2.35425 13.0777 2.24799 13.3921 2.30975C13.7064 2.37152 13.9664 2.59249 14.079 2.89363Z" fill="#FF8B7B"/>
<path d="M12.8807 3.84304C12.7784 3.98082 12.6999 4.0854 12.6999 4.0854C12.6999 4.0854 12.4898 3.56123 12.5702 3.32074C12.468 3.11721 12.2616 3.41719 12.1837 3.02077C12.1057 2.62435 12.443 2.19849 12.5702 2.11019C12.5833 2.15639 12.5892 2.20434 12.5877 2.25235C12.9313 1.9722 13.3681 1.83364 13.8096 1.8647C13.7727 1.91983 13.7492 1.9829 13.741 2.04882C13.741 2.04882 14.481 2.17407 14.6494 2.59491C14.5898 2.56637 14.527 2.54534 14.4623 2.53229C14.598 2.72767 14.6517 2.9688 14.612 3.20363C14.5583 3.5461 14.5303 3.89215 14.5284 4.23883C14.5353 4.41669 14.0496 4.75675 13.7535 4.39352C13.4574 4.03029 12.8807 3.84304 12.8807 3.84304Z" fill="#263238"/>
<path d="M13.1894 3.7065C13.228 3.85412 13.217 4.01041 13.1582 4.15114C13.079 4.33901 12.9163 4.29392 12.8359 4.12984C12.7629 3.98267 12.7162 3.70963 12.8452 3.57874C12.9743 3.44785 13.1407 3.52927 13.1894 3.7065Z" fill="#FF8B7B"/>
<path d="M14.4711 10.8596C14.4711 10.8596 11.3015 12.0144 11.2087 13.5419C11.0366 16.3556 12.1818 18.5832 12.1818 18.5832L13.2317 18.4705C13.2317 18.4705 13.0447 17.5649 12.9057 15.0161C12.7305 11.8128 18.1425 15.0912 17.0278 10.8596H14.4711Z" fill="#407BFF"/>
<path opacity="0.5" d="M14.4711 10.8596C14.4711 10.8596 11.3015 12.0144 11.2087 13.5419C11.0366 16.3556 12.1818 18.5832 12.1818 18.5832L13.2317 18.4705C13.2317 18.4705 13.0447 17.5649 12.9057 15.0161C12.7305 11.8128 18.1425 15.0912 17.0278 10.8596H14.4711Z" fill="white"/>
<path d="M11.8913 18.1949C11.8864 18.1949 12.0584 18.6634 12.0584 18.6634L13.3676 18.5344L13.3022 18.1085L11.8913 18.1949Z" fill="#407BFF"/>
<path d="M10.2773 19.6115H9.59464L9.39514 18.0233H10.0778L10.2773 19.6115Z" fill="#FF8B7B"/>
<path d="M9.58954 19.3861H10.3377C10.3655 19.3857 10.3897 19.4051 10.3956 19.4324L10.5316 20.0417C10.5396 20.072 10.533 20.1043 10.5138 20.1289C10.4945 20.1536 10.4648 20.1677 10.4337 20.167C10.165 20.1626 9.77595 20.1476 9.43618 20.1482C9.04092 20.1482 8.96548 20.1701 8.50102 20.1707C8.22047 20.1707 8.14255 19.8871 8.25975 19.8576C8.79341 19.7399 8.96424 19.7267 9.42496 19.4405C9.47359 19.4071 9.53066 19.3882 9.58954 19.3861Z" fill="#263238"/>
<path opacity="0.2" d="M9.39563 18.0239L9.50411 18.8888L10.1812 18.8424L10.0783 18.0239H9.39563Z" fill="black"/>
<path d="M13.377 10.8596C13.377 10.8596 8.18372 11.3224 8.23983 13.9427C8.29781 16.6681 9.31152 18.5062 9.31152 18.5062H10.3252C10.3252 18.5062 10.1332 17.0921 10.1675 14.4092C10.1775 13.6057 11.7947 13.3402 13.3732 13.2463C14.7373 13.1649 16.0141 12.3839 16.544 11.117L16.6531 10.8596H13.377Z" fill="#407BFF"/>
<path opacity="0.5" d="M13.377 10.8596C13.377 10.8596 8.18372 11.3224 8.23983 13.9427C8.29781 16.6681 9.31152 18.5062 9.31152 18.5062H10.3252C10.3252 18.5062 10.1332 17.0921 10.1675 14.4092C10.1775 13.6057 11.7947 13.3402 13.3732 13.2463C14.7373 13.1649 16.0141 12.3839 16.544 11.117L16.6531 10.8596H13.377Z" fill="white"/>
<path d="M9.07405 18.2325C9.06969 18.2325 9.24799 18.7034 9.24799 18.7034L10.4724 18.6151L10.4007 18.1893L9.07405 18.2325Z" fill="#407BFF"/>
<path d="M14.7405 7.91494L14.0815 10.4657C13.913 11.1192 13.8279 11.7915 13.8284 12.4666V13.6521C13.8284 13.9514 14.0478 14.1944 14.319 14.1944H17.6968C17.968 14.1944 18.1874 13.9514 18.1874 13.6521V12.4666C18.1872 11.7915 18.2725 11.1191 18.4412 10.4657L19.0228 8.21116C19.1126 7.86484 18.877 7.52228 18.5509 7.52228H15.2118C14.9838 7.52948 14.7897 7.69118 14.7405 7.91494Z" fill="#263238"/>
<path d="M10.5391 12.9594L10.6495 13.5919C10.7081 13.9245 10.9992 14.1944 11.3004 14.1944H15.0553C15.3564 14.1944 15.5541 13.9245 15.4955 13.5919L15.3851 12.9594C15.3184 12.5805 14.9874 12.2737 14.6445 12.2737H11.0423C10.6969 12.2737 10.4731 12.5805 10.5391 12.9594Z" fill="#263238"/>
<path d="M15.4169 14.8294H13.45L13.2579 14.1944H15.6089L15.4169 14.8294Z" fill="#407BFF"/>
<rect x="14.082" y="14.8294" width="0.702614" height="4.72259" fill="#407BFF"/>
<path opacity="0.7" d="M14.7846 19.552H14.082V14.9428L14.7846 15.0148V19.552Z" fill="white"/>
<path opacity="0.7" d="M14.6133 19.552H14.4456V14.9797L14.6133 14.9973V19.552Z" fill="white"/>
<path d="M16.049 20.2822H12.8171C12.7785 20.2819 12.7444 20.2567 12.7325 20.2198C12.7206 20.1829 12.7336 20.1424 12.7647 20.1194L13.2772 19.7437C13.5236 19.5624 13.821 19.4646 14.1263 19.4644H14.7404C15.0456 19.4647 15.3427 19.5625 15.5889 19.7437L16.102 20.1194C16.1332 20.1425 16.1462 20.1831 16.1341 20.2201C16.1221 20.2571 16.0878 20.2822 16.049 20.2822Z" fill="#407BFF"/>
</svg>
