<svg width="4" height="12" viewBox="0 0 4 12" fill="none" xmlns="http://www.w3.org/2000/svg">
<mask id="mask0_9_5186" style="mask-type:luminance" maskUnits="userSpaceOnUse" x="2" y="0" width="2" height="12">
<path fill-rule="evenodd" clip-rule="evenodd" d="M2.05017 0.252747H3.52173V11.398H2.05017V0.252747Z" fill="white"/>
</mask>
<g mask="url(#mask0_9_5186)">
<path fill-rule="evenodd" clip-rule="evenodd" d="M2.05017 11.2054C2.05017 10.6698 2.37112 10.4012 2.65391 10.1639C2.91475 9.94579 3.12049 9.77365 3.12049 9.41309C3.12049 9.05229 2.91475 8.88015 2.65391 8.66156C2.37112 8.42453 2.05017 8.15591 2.05017 7.62009C2.05017 7.08476 2.37112 6.81613 2.65391 6.57911C2.91475 6.361 3.12049 6.18862 3.12049 5.82829C3.12049 5.46749 2.91475 5.29511 2.65391 5.07676C2.37112 4.8395 2.05017 4.57088 2.05017 4.03482C2.05017 3.49876 2.37087 3.22966 2.65391 2.9924C2.9145 2.77405 3.12049 2.60119 3.12049 2.24015C3.12049 1.87911 2.9145 1.70649 2.65391 1.48814C2.37087 1.25064 2.05017 0.981772 2.05017 0.445477C2.05017 0.339176 2.13995 0.252747 2.25092 0.252747C2.36164 0.252747 2.45142 0.339176 2.45142 0.445477C2.45142 0.806758 2.6574 0.979378 2.918 1.19773C3.20104 1.43499 3.52173 1.70385 3.52173 2.24015C3.52173 2.7762 3.20104 3.04531 2.91775 3.28257C2.6574 3.50116 2.45142 3.67378 2.45142 4.03482C2.45142 4.39562 2.6574 4.56824 2.91775 4.78635C3.20104 5.02361 3.52173 5.29224 3.52173 5.82829C3.52173 6.36387 3.20079 6.6325 2.91775 6.86952C2.6574 7.08763 2.45142 7.26001 2.45142 7.62009C2.45142 7.98089 2.6574 8.15304 2.91775 8.37138C3.20079 8.60841 3.52173 8.87727 3.52173 9.41309C3.52173 9.94866 3.20079 10.2175 2.91775 10.4546C2.6574 10.6727 2.45142 10.845 2.45142 11.2054C2.45142 11.3117 2.36164 11.3981 2.25092 11.3981C2.13995 11.3981 2.05017 11.3117 2.05017 11.2054Z" fill="#F64B4B"/>
</g>
<path fill-rule="evenodd" clip-rule="evenodd" d="M0 11.0074C0 10.4689 0.317319 10.1989 0.596915 9.96072C0.854567 9.74152 1.05822 9.56852 1.05822 9.20615C1.05822 8.84355 0.854567 8.6703 0.596915 8.45086C0.317319 8.21266 0 7.94269 0 7.40419C0 6.86594 0.317319 6.59621 0.596915 6.35776C0.854567 6.1388 1.05822 5.96556 1.05822 5.60343C1.05822 5.24083 0.854567 5.06734 0.596915 4.8479C0.317319 4.60969 0 4.33948 0 3.80099C0 3.26201 0.317072 2.9918 0.596668 2.75335C0.854567 2.53367 1.05822 2.36019 1.05822 1.99734C1.05822 1.63425 0.854567 1.46101 0.596915 1.24133C0.317072 1.00288 0 0.732431 0 0.193695C0 0.0866212 0.0887606 0 0.198232 0C0.30795 0 0.39671 0.0866212 0.39671 0.193695C0.39671 0.556541 0.600366 0.730025 0.858019 0.949706C1.13786 1.18815 1.45469 1.45836 1.45469 1.99734C1.45469 2.53608 1.13786 2.80653 0.857772 3.04498C0.600367 3.26466 0.39671 3.43814 0.39671 3.80099C0.39671 4.16359 0.600367 4.33684 0.857772 4.55628C1.13786 4.79449 1.45469 5.0647 1.45469 5.60343C1.45469 6.14169 1.13761 6.41142 0.857772 6.64986C0.60012 6.86906 0.39671 7.04207 0.39671 7.40419C0.39671 7.76656 0.60012 7.9398 0.857772 8.15924C1.13761 8.39745 1.45469 8.66766 1.45469 9.20615C1.45469 9.74441 1.13761 10.0146 0.857772 10.2526C0.60012 10.4718 0.39671 10.645 0.39671 11.0074C0.39671 11.1142 0.30795 11.2011 0.198232 11.2011C0.0887606 11.2011 0 11.1142 0 11.0074Z" fill="#F64B4B"/>
</svg>
